<svg xmlns="http://www.w3.org/2000/svg" width="28" height="28" viewBox="0 0 28 28"><path fill="#007397" d="M13.848 27.698C6.212 27.698 0 21.552 0 13.998 0 6.447 6.212.3 13.848.3c7.637 0 13.849 6.146 13.849 13.699l-1.282 1.268c.043-.417.064-.84.064-1.268L13.848 1.504C6.883 1.504 1.218 7.11 1.218 14c0 6.89 5.665 12.495 12.63 12.495.433 0 .86-.022 1.282-.064zm12.567-12.431L15.13 26.43c5.943-.596 10.683-5.284 11.285-11.163z"/><path fill="#007397" d="M13.847 27.698c-4.559 0-8.267-6.146-8.267-13.7C5.58 6.447 9.288.3 13.847.3c4.558 0 8.265 6.146 8.265 13.699l-1.338 2.219c.073-.72.11-1.462.11-2.22L13.843 1.505C9.958 1.504 6.797 7.11 6.797 14c0 6.89 3.16 12.495 7.045 12.495.263 0 .522-.026.777-.076zm6.927-11.48l-6.155 10.2c3.105-.607 5.608-4.809 6.155-10.2z"/><path fill="#007397" d="M13.849 27.698a.605.605 0 0 1-.609-.602V.902c0-.332.273-.602.609-.602 7.636 0 13.849 6.146 13.849 13.699l-1.282 1.268c.042-.417.064-.84.064-1.268L14.457 1.519V26.48c.226-.01.45-.027.673-.05zm12.567-12.431L15.13 26.43c5.944-.595 10.684-5.284 11.286-11.164z"/><path fill="#007397" d="M26.224 19.218H1.468a.608.608 0 0 1-.57-.39A13.527 13.527 0 0 1 0 13.998c0-1.64.303-3.264.902-4.83a.608.608 0 0 1 .57-.389h24.752a.61.61 0 0 1 .57.389c.599 1.57.903 3.196.903 4.83 0 1.636-.304 3.26-.903 4.83zM1.897 18.013h23.9c.452-1.31.682-2.659.682-4.014 0-1.354-.23-2.703-.684-4.015H1.9A12.237 12.237 0 0 0 1.217 14z"/></svg>